<svg width="50" height="50" viewBox="0 0 50 50" fill="none" xmlns="http://www.w3.org/2000/svg">
<mask id="mask0_139_304" style="mask-type:alpha" maskUnits="userSpaceOnUse" x="0" y="0" width="50" height="50">
<rect width="50" height="50" fill="#D9D9D9"/>
</mask>
<g mask="url(#mask0_139_304)">
<path d="M24.7396 41.6665C24.8785 41.6665 25.0174 41.6318 25.1562 41.5623C25.2951 41.4929 25.3993 41.4235 25.4687 41.354L42.5521 24.2707C42.9688 23.854 43.2726 23.3853 43.4635 22.8644C43.6545 22.3436 43.75 21.8228 43.75 21.3019C43.75 20.7464 43.6545 20.2169 43.4635 19.7134C43.2726 19.2099 42.9688 18.7672 42.5521 18.3853L33.6979 9.53109C33.316 9.11442 32.8733 8.8106 32.3698 8.61963C31.8663 8.42866 31.3368 8.33317 30.7812 8.33317C30.2604 8.33317 29.7396 8.42866 29.2188 8.61963C28.6979 8.8106 28.2292 9.11442 27.8125 9.53109L27.2396 10.104L31.0938 14.0103C31.6146 14.4964 31.9965 15.0519 32.2396 15.6769C32.4826 16.3019 32.6042 16.9616 32.6042 17.6561C32.6042 19.1144 32.1094 20.3384 31.1198 21.328C30.1302 22.3175 28.9062 22.8123 27.4479 22.8123C26.7535 22.8123 26.0851 22.6908 25.4427 22.4478C24.8003 22.2047 24.2361 21.8401 23.75 21.354L19.8437 17.4998L10.7292 26.6144C10.625 26.7186 10.5469 26.8314 10.4948 26.953C10.4427 27.0745 10.4167 27.2047 10.4167 27.3436C10.4167 27.6214 10.5208 27.8731 10.7292 28.0988C10.9375 28.3245 11.1806 28.4373 11.4583 28.4373C11.5972 28.4373 11.7361 28.4026 11.875 28.3332C12.0139 28.2637 12.1181 28.1943 12.1875 28.1248L19.2708 21.0415L22.1875 23.9582L15.1562 31.0415C15.0521 31.1457 14.974 31.2585 14.9219 31.38C14.8698 31.5016 14.8437 31.6318 14.8437 31.7707C14.8437 32.0485 14.9479 32.2915 15.1562 32.4998C15.3646 32.7082 15.6076 32.8123 15.8854 32.8123C16.0243 32.8123 16.1632 32.7776 16.3021 32.7082C16.441 32.6387 16.5451 32.5693 16.6146 32.4998L23.6979 25.4686L26.6146 28.3853L19.5833 35.4686C19.4792 35.538 19.401 35.6422 19.349 35.7811C19.2969 35.92 19.2708 36.0589 19.2708 36.1978C19.2708 36.4755 19.375 36.7186 19.5833 36.9269C19.7917 37.1353 20.0347 37.2394 20.3125 37.2394C20.4514 37.2394 20.5816 37.2134 20.7031 37.1613C20.8247 37.1092 20.9375 37.0311 21.0417 36.9269L28.125 29.8957L31.0417 32.8123L23.9583 39.8957C23.8542 39.9998 23.776 40.1127 23.724 40.2342C23.6719 40.3557 23.6458 40.486 23.6458 40.6248C23.6458 40.9026 23.7587 41.1457 23.9844 41.354C24.2101 41.5623 24.4618 41.6665 24.7396 41.6665ZM24.6875 45.8332C23.4028 45.8332 22.2656 45.4078 21.276 44.5571C20.2865 43.7064 19.7049 42.6387 19.5312 41.354C18.3507 41.1804 17.3611 40.6943 16.5625 39.8957C15.7639 39.0971 15.2778 38.1075 15.1042 36.9269C13.9236 36.7533 12.9427 36.2585 12.1615 35.4425C11.3802 34.6266 10.9028 33.6457 10.7292 32.4998C9.40972 32.3262 8.33333 31.7533 7.5 30.7811C6.66667 29.8089 6.25 28.663 6.25 27.3436C6.25 26.6491 6.38021 25.9807 6.64062 25.3384C6.90104 24.696 7.27431 24.1318 7.76042 23.6457L19.8437 11.6144L26.6667 18.4373C26.7361 18.5415 26.8403 18.6196 26.9792 18.6717C27.1181 18.7238 27.2569 18.7498 27.3958 18.7498C27.7083 18.7498 27.9687 18.6544 28.1771 18.4634C28.3854 18.2724 28.4896 18.0207 28.4896 17.7082C28.4896 17.5693 28.4635 17.4304 28.4115 17.2915C28.3594 17.1526 28.2812 17.0484 28.1771 16.979L20.7292 9.53109C20.3472 9.11442 19.9045 8.8106 19.401 8.61963C18.8976 8.42866 18.3681 8.33317 17.8125 8.33317C17.2917 8.33317 16.7708 8.42866 16.25 8.61963C15.7292 8.8106 15.2604 9.11442 14.8437 9.53109L7.5 16.9269C7.1875 17.2394 6.92708 17.604 6.71875 18.0207C6.51042 18.4373 6.37153 18.854 6.30208 19.2707C6.23264 19.6873 6.23264 20.1127 6.30208 20.5467C6.37153 20.9807 6.51042 21.3887 6.71875 21.7707L3.69792 24.7915C3.10764 23.9929 2.67361 23.1162 2.39583 22.1613C2.11806 21.2064 2.01389 20.2429 2.08333 19.2707C2.15278 18.2984 2.39583 17.3523 2.8125 16.4321C3.22917 15.512 3.80208 14.6873 4.53125 13.9582L11.875 6.61442C12.7083 5.81581 13.6372 5.20817 14.6615 4.7915C15.6858 4.37484 16.7361 4.1665 17.8125 4.1665C18.8889 4.1665 19.9392 4.37484 20.9635 4.7915C21.9878 5.20817 22.8993 5.81581 23.6979 6.61442L24.2708 7.18734L24.8438 6.61442C25.6771 5.81581 26.6059 5.20817 27.6302 4.7915C28.6545 4.37484 29.7049 4.1665 30.7812 4.1665C31.8576 4.1665 32.908 4.37484 33.9323 4.7915C34.9566 5.20817 35.8681 5.81581 36.6667 6.61442L45.4688 15.4165C46.2674 16.2151 46.875 17.1353 47.2917 18.1769C47.7083 19.2186 47.9167 20.2776 47.9167 21.354C47.9167 22.4304 47.7083 23.4807 47.2917 24.505C46.875 25.5294 46.2674 26.4408 45.4688 27.2394L28.3854 44.2707C27.8993 44.7568 27.3351 45.1387 26.6927 45.4165C26.0503 45.6943 25.3819 45.8332 24.6875 45.8332Z" fill="white"/>
</g>
</svg>
